<?xml version="1.0" standalone="no"?>
<!DOCTYPE svg PUBLIC "-//W3C//DTD SVG 20010904//EN"
 "http://www.w3.org/TR/2001/REC-SVG-20010904/DTD/svg10.dtd">
<svg version="1.0" xmlns="http://www.w3.org/2000/svg"
 width="740.000000pt" height="740.000000pt" viewBox="0 0 740.000000 740.000000"
 preserveAspectRatio="xMidYMid meet">
<metadata>
Created by potrace 1.14, written by Peter Selinger 2001-2017
</metadata>
<g transform="translate(0.000000,740.000000) scale(0.100000,-0.100000)"
fill="#000000" stroke="none">
<path d="M3479 7396 c-2 -2 -42 -6 -89 -10 -110 -8 -147 -12 -315 -41 -174
-31 -197 -35 -205 -40 -4 -2 -22 -7 -41 -10 -99 -17 -428 -124 -566 -185 -211
-93 -370 -177 -532 -278 -100 -63 -293 -200 -355 -252 -255 -214 -448 -414
-627 -650 -76 -100 -139 -188 -139 -194 0 -3 -17 -31 -39 -63 -201 -304 -406
-798 -481 -1158 -18 -90 -39 -202 -45 -240 -3 -23 -7 -50 -9 -60 -28 -146 -42
-634 -24 -830 10 -103 28 -247 32 -254 2 -3 7 -28 10 -56 4 -27 9 -57 11 -65
2 -8 7 -31 10 -50 12 -73 76 -311 111 -416 114 -344 286 -688 478 -959 41 -57
138 -187 158 -211 500 -594 1053 -972 1758 -1200 90 -29 320 -90 372 -98 21
-3 57 -10 80 -15 24 -5 63 -12 88 -15 25 -4 74 -11 110 -16 164 -25 587 -34
790 -17 203 17 488 69 675 123 117 34 281 88 325 107 19 8 60 25 90 37 178 72
363 167 555 287 658 410 1180 1035 1470 1758 51 127 139 394 151 459 2 12 6
30 8 41 35 154 47 210 51 242 3 21 7 47 10 58 2 11 7 42 11 70 3 27 8 61 10
75 25 186 25 783 -1 863 -2 7 -6 36 -10 66 -3 30 -8 64 -10 75 -2 12 -7 39
-10 60 -6 46 -9 61 -29 146 -8 36 -18 80 -21 99 -3 19 -10 41 -14 50 -5 9 -12
34 -16 56 -9 51 -76 252 -125 375 -82 206 -189 421 -287 573 -23 37 -43 70
-43 72 0 3 -39 59 -86 126 -241 339 -541 641 -869 875 -61 44 -120 84 -130 91
-11 6 -56 34 -100 61 -224 139 -498 266 -770 357 -100 33 -337 97 -410 110
-104 19 -269 45 -320 50 -33 4 -71 9 -85 12 -29 5 -556 14 -561 9z"/>
</g>
</svg>
